<?xml version="1.0" encoding="UTF-8"?>
<svg id="Layer_1" data-name="Layer 1" xmlns="http://www.w3.org/2000/svg" viewBox="0 0 955.29 1043.78">
  <path d="M.29,357.87c.36-12.66,10.37-19.48,19.22-20.62,12.31-1.59,16.5,7.32,24,15.45,8.38,9.08,24.52,11.57,36.54,14.57l86.19,21.51c39.06,9.75,75.14,23.61,109.19,44.32,105.18,63.94,112.9,177.33,82.28,288.77l21.3,55.99c12.19-71.45,30.31-141.22,58.97-208.51-22.12-79.2-32.91-162.22-16.18-240.9,14.63-69.49,53.98-127.77,111.23-169.44,75.6-55.02,165.32-77.19,255.1-98.72,35.58-8.53,112.52-23.99,123.46-43.1,5.93-10.36,12.66-18.55,24.38-17,11.09,1.47,18.67,10.4,18.98,22.92,3.85,154.46-24.83,340.44-125.2,461.88-91.96,110.47-218.02,135.61-357.17,112.52-45.58,113.33-63.71,235.67-67.28,356.95l.39,70.91c.06,10.76-10.42,17.94-19.86,18.4-10.21.5-21.25-7.43-21.46-18.72l-1.43-77.88c-1.26-68.56-15.93-134.97-40.29-198.95-101.92,16.93-190.11-9.72-249.64-92.92C15.25,573.61-2.55,458.55.29,357.87ZM649,376.57c-70.83,42.81-120.92,105.57-157.84,180.48,124.24,19.81,238.15-8.31,314.28-108.75,78.39-103.42,103.74-248.99,107.71-380.17-70.89,28.33-148.24,36.73-221.2,61.16-45.02,14.22-86.65,31.91-125.5,57.88-110.9,74.15-126.39,197.53-99.4,322.13,43.11-71.41,90.55-126.85,159.62-168.23,10.54-7.11,23.82-4.55,30.16,5.39s4.21,23.29-7.83,30.11ZM225.82,563c42.33,23.47,73.22,57.47,100.74,97.98,14.17-70.73-.44-137.73-56.55-180.79-63.15-48.45-148.24-55.37-226.8-79.84,2.54,79.12,19.96,169.88,67.32,234.47,45.01,61.39,115.09,84.22,193.46,72.9-23.05-44.34-54.98-82.21-97.2-107.72-10.57-6.39-13.29-18.28-8.86-27.48,4.52-9.4,16.84-15.66,27.9-9.53Z"/>
</svg>